<?xml version="1.0" standalone="no"?>
<!DOCTYPE svg PUBLIC "-//W3C//DTD SVG 20010904//EN"
 "http://www.w3.org/TR/2001/REC-SVG-20010904/DTD/svg10.dtd">
<svg version="1.0" xmlns="http://www.w3.org/2000/svg"
 width="100.000000pt" height="100.000000pt" viewBox="0 0 100.000000 100.000000"
 preserveAspectRatio="xMidYMid meet">
<metadata>
Created by potrace 1.14, written by Peter Selinger 2001-2017
</metadata>
<g transform="translate(0.000000,100.000000) scale(0.100000,-0.100000)"
fill="#000000" stroke="none">
<path d="M388 915 c-78 -21 -135 -54 -192 -110 -146 -144 -177 -365 -79 -547
33 -61 134 -158 198 -190 108 -55 277 -56 393 -3 62 29 170 132 202 194 86
170 57 385 -71 525 -113 123 -292 175 -451 131z m119 -35 c-12 -31 -2 -54 13
-30 7 10 10 11 10 3 0 -7 5 -13 11 -13 7 0 10 12 7 30 -4 27 -2 30 22 30 23 0
26 -4 25 -37 l0 -38 -90 0 c-82 0 -95 -3 -148 -32 -32 -18 -53 -25 -47 -17 7
7 8 14 3 14 -5 0 -15 11 -21 25 -15 32 1 32 25 0 13 -18 22 -22 33 -15 13 8
13 13 -3 39 -15 26 -15 30 -1 35 8 3 13 2 10 -3 -3 -5 3 -20 14 -32 11 -13 19
-19 20 -12 0 7 7 10 15 7 11 -5 15 1 15 20 0 19 -5 26 -19 26 -11 0 -22 -6
-24 -12 -4 -10 -6 -10 -6 -1 -1 15 7 20 50 28 35 6 36 6 32 -22 -4 -24 -1 -29
16 -29 23 0 26 12 11 36 -7 11 -5 17 8 22 29 11 31 9 19 -22z m148 -2 c28 -13
29 -16 14 -38 -9 -12 -10 -12 -5 3 4 12 2 17 -6 15 -7 -3 -15 -15 -16 -27 -2
-13 1 -21 6 -17 5 3 12 -1 16 -9 3 -8 12 -15 20 -15 18 0 40 36 30 51 -12 20
38 -12 83 -54 l44 -41 -25 -13 c-14 -8 -26 -18 -26 -24 0 -6 5 -7 10 -4 6 3
10 1 10 -4 0 -17 28 -13 38 4 12 22 45 -41 67 -125 91 -346 -264 -639 -584
-483 -72 34 -161 125 -196 198 -28 60 -47 174 -27 161 6 -3 13 -2 17 4 8 13
45 13 45 0 0 -5 -11 -10 -24 -10 -14 0 -28 -4 -31 -10 -4 -6 6 -10 22 -10 24
-1 25 -2 11 -11 -25 -14 -22 -39 4 -39 20 0 21 -1 3 -20 -15 -16 -16 -22 -5
-35 7 -9 10 -18 7 -22 -11 -10 14 -33 35 -33 11 0 22 8 24 18 4 13 18 5 67
-43 72 -70 133 -95 233 -95 90 0 164 30 224 92 26 27 54 63 61 79 9 24 18 30
38 29 44 -3 47 0 16 16 l-30 14 33 -5 c24 -3 34 0 39 11 8 21 -17 36 -34 22
-11 -8 -12 -7 -7 7 5 11 3 16 -2 12 -5 -3 -10 3 -10 14 0 16 6 19 28 15 29 -4
47 8 26 18 -10 5 -10 7 1 12 10 5 6 11 -15 20 l-29 14 30 -5 c28 -5 29 -5 11
10 -11 8 -27 13 -37 10 -12 -4 -18 2 -22 25 -20 96 -101 198 -188 237 -44 19
-45 21 -24 49 19 25 19 38 0 30 -8 -3 -15 -1 -15 4 0 13 13 13 45 -2z m45 -52
c0 -3 -4 -8 -10 -11 -5 -3 -10 -1 -10 4 0 6 5 11 10 11 6 0 10 -2 10 -4z
m-444 -15 c-3 -5 3 -19 13 -32 18 -24 18 -24 -27 -84 -24 -33 -42 -51 -41 -40
2 11 10 25 18 31 20 16 9 47 -19 54 -18 4 -21 8 -12 14 8 5 20 2 31 -8 25 -23
31 -20 31 14 0 17 -5 30 -11 30 -8 0 -8 5 1 15 13 16 25 21 16 6z m361 -32
c114 -43 193 -162 193 -293 0 -93 -23 -148 -89 -216 -47 -47 -68 -62 -116 -75
-133 -39 -259 4 -342 115 -13 17 -9 18 75 20 26 0 42 5 42 13 0 9 2 9 8 0 4
-6 25 -10 47 -10 40 2 40 2 43 45 3 39 -9 55 -23 32 -9 -14 -42 -12 -49 3 -5
10 -7 10 -12 0 -3 -7 -19 -13 -35 -13 -24 0 -29 -4 -29 -25 0 -21 -5 -25 -27
-24 l-28 0 25 11 c25 11 25 11 3 15 -28 5 -30 23 -3 23 11 0 20 5 20 11 0 6
-14 9 -32 7 -30 -3 -33 -6 -38 -43 l-5 -40 -12 30 c-55 131 -24 271 80 361 85
74 195 93 304 53z m-434 -89 c8 0 7 -4 -2 -9 -8 -5 -20 -7 -27 -4 -11 4 -11 9
-2 26 11 19 13 20 16 5 2 -10 9 -18 15 -18z m27 20 c0 -5 -2 -10 -4 -10 -3 0
-8 5 -11 10 -3 6 -1 10 4 10 6 0 11 -4 11 -10z m-35 -80 c18 0 22 -4 18 -20
-3 -11 -9 -18 -13 -15 -5 3 -12 0 -15 -6 -4 -6 -18 -8 -31 -5 -15 4 -24 2 -24
-5 0 -6 10 -13 22 -17 l22 -5 -22 -8 c-12 -5 -22 -13 -22 -18 0 -10 39 -27 53
-23 4 1 7 -3 7 -8 0 -6 -16 -10 -36 -8 l-36 2 5 56 c2 30 10 69 16 85 11 26
14 28 22 13 6 -10 21 -18 34 -18z m688 -141 c5 -3 2 -9 -7 -12 -12 -5 -16 0
-16 15 0 12 3 17 8 12 4 -5 11 -12 15 -15z m-408 -118 c3 -5 1 -12 -5 -16 -5
-3 -10 1 -10 9 0 18 6 21 15 7z"/>
<path d="M727 798 c-8 -29 -3 -32 22 -18 19 10 20 13 7 25 -19 20 -23 19 -29
-7z"/>
<path d="M761 761 c-12 -8 -11 -12 3 -27 15 -14 19 -15 27 -3 13 20 11 39 -3
39 -7 0 -19 -4 -27 -9z"/>
<path d="M824 674 c-18 -15 -18 -15 9 -9 15 3 27 1 27 -5 0 -5 -6 -10 -14 -10
-8 0 -18 -4 -21 -10 -3 -5 9 -9 30 -8 40 1 42 6 16 36 -22 26 -22 26 -47 6z"/>
<path d="M858 613 c-19 -5 -25 -23 -8 -23 5 0 7 -7 3 -16 -5 -13 -2 -15 18 -9
33 10 36 15 19 25 -10 7 -11 10 -2 10 6 0 12 5 12 10 0 10 -12 11 -42 3z"/>
<path d="M822 313 c2 -10 14 -19 26 -21 19 -3 23 1 20 15 -2 10 -14 19 -26 21
-19 3 -23 -1 -20 -15z"/>
<path d="M790 266 c0 -6 5 -17 12 -24 7 -7 8 -12 2 -12 -5 0 -15 5 -20 10 -8
8 -15 6 -24 -5 -11 -13 -10 -19 5 -35 21 -24 37 -26 29 -5 -4 10 -2 13 7 10 8
-3 21 7 31 24 16 29 16 30 -13 40 -22 7 -29 7 -29 -3z"/>
<path d="M221 244 l-23 -16 37 -35 c20 -19 38 -33 40 -31 11 14 23 46 18 51
-3 4 -15 1 -27 -5 -19 -10 -20 -10 -7 5 13 17 9 47 -6 47 -5 0 -19 -7 -32 -16z"/>
<path d="M730 202 c0 -4 5 -13 12 -20 8 -8 9 -12 1 -12 -6 0 -13 5 -15 11 -2
7 -16 5 -41 -8 -20 -11 -33 -24 -29 -28 4 -5 -1 -5 -10 -2 -11 4 -18 1 -18 -6
0 -17 29 -56 30 -39 0 6 6 11 13 10 6 -2 11 2 10 9 -2 7 3 10 10 8 17 -7 46
15 30 22 -7 2 -13 10 -13 16 0 8 4 7 12 -1 17 -17 48 -15 48 4 0 8 -6 22 -14
30 -16 16 -26 18 -26 6z"/>
<path d="M296 178 c-23 -32 -20 -44 5 -22 21 19 22 19 15 -3 -9 -27 2 -30 20
-6 7 10 16 15 20 11 4 -5 -1 -17 -11 -28 -10 -11 -13 -20 -7 -20 6 0 17 -3 26
-6 23 -9 21 45 -1 63 -42 32 -51 34 -67 11z"/>
<path d="M395 127 c-5 -18 -3 -33 4 -40 16 -16 20 -6 12 33 l-8 35 -8 -28z"/>
<path d="M542 131 c-19 -12 -4 -63 17 -59 20 4 26 41 9 56 -8 6 -19 7 -26 3z"/>
<path d="M590 111 c0 -24 3 -28 20 -24 23 6 24 8 10 34 -16 28 -30 23 -30 -10z"/>
<path d="M440 110 c0 -5 5 -10 10 -10 6 0 10 5 10 10 0 6 -4 10 -10 10 -5 0
-10 -4 -10 -10z"/>
<path d="M479 713 c-1 -49 -3 -59 -8 -35 -8 43 -27 37 -24 -8 2 -30 -1 -25
-20 27 -12 34 -25 65 -29 69 -15 14 -8 -42 12 -95 11 -30 17 -57 15 -60 -3 -2
-5 0 -5 5 0 19 -41 75 -51 69 -6 -4 -3 -19 10 -41 29 -49 19 -42 -24 16 -34
46 -55 62 -55 41 0 -4 19 -33 42 -62 23 -30 31 -44 17 -31 -14 12 -28 22 -32
22 -14 0 -6 -28 13 -45 33 -30 15 -28 -36 4 -27 16 -52 27 -57 24 -12 -7 3
-21 60 -54 l48 -28 -39 6 c-31 5 -38 3 -34 -8 3 -8 13 -16 24 -17 10 -2 24 -9
29 -14 7 -7 -9 -8 -49 -3 -46 5 -57 4 -54 -7 3 -7 24 -16 49 -19 36 -5 38 -6
12 -7 -34 -2 -53 -19 -31 -27 7 -2 130 -1 272 3 193 5 260 10 264 20 3 9 -16
12 -70 12 -51 0 -68 3 -58 10 8 5 34 10 57 10 48 0 73 8 73 22 0 10 -72 5
-127 -9 -36 -8 -26 12 12 26 38 14 49 37 13 27 -13 -3 -34 -9 -48 -12 -16 -5
-3 9 38 39 34 26 62 51 62 57 0 16 -8 12 -64 -30 -63 -47 -81 -52 -41 -10 34
35 14 41 -24 8 l-25 -23 18 30 c10 17 29 44 42 62 13 17 24 36 24 42 0 24 -18
8 -55 -48 -22 -33 -41 -58 -43 -56 -2 2 3 14 12 27 9 12 16 28 16 35 0 21 -20
15 -30 -9 -15 -38 -10 4 5 47 18 49 18 58 3 53 -7 -3 -22 -36 -34 -74 -21 -66
-22 -67 -17 -21 4 29 2 47 -5 47 -5 0 -14 -21 -20 -47 l-10 -48 -1 78 c-1 95
-20 104 -22 10z m45 -209 c29 -28 13 -44 -45 -44 -33 0 -37 15 -12 42 20 22
37 23 57 2z"/>
<path d="M656 423 c-4 -4 -22 -6 -41 -5 -34 3 -35 2 -35 -37 0 -40 19 -59 43
-44 7 4 26 6 44 4 19 -1 33 2 33 8 0 6 -5 11 -11 11 -5 0 -7 5 -4 11 5 6 13 2
22 -11 9 -13 23 -20 36 -18 18 3 22 9 19 38 -4 46 -17 58 -43 41 -15 -9 -24
-10 -32 -2 -13 13 -21 14 -31 4z m11 -40 c-9 -9 -20 -13 -24 -9 -4 4 -1 11 7
16 25 16 35 11 17 -7z"/>
<path d="M530 409 c-11 -8 -12 -12 -2 -16 6 -2 12 -16 12 -29 0 -13 5 -24 10
-24 6 0 10 18 10 40 0 42 -5 47 -30 29z"/>
<path d="M490 339 c0 -5 5 -7 10 -4 6 3 10 8 10 11 0 2 -4 4 -10 4 -5 0 -10
-5 -10 -11z"/>
</g>
</svg>
